<?xml version="1.0" encoding="utf-8"?>

<!-- Uploaded to: SVG Repo, www.svgrepo.com, Generator: SVG Repo Mixer Tools -->
<svg version="1.1" id="Icons" xmlns="http://www.w3.org/2000/svg" xmlns:xlink="http://www.w3.org/1999/xlink" 
	 viewBox="0 0 32 32" xml:space="preserve">
<style type="text/css">
	.st0{fill:none;stroke:#000000;stroke-width:2;stroke-linecap:round;stroke-linejoin:round;stroke-miterlimit:10;}
</style>
<path d="M29.4,11.4L29,7.9V3c0-0.6-0.4-1-1-1h-5c-0.6,0-1,0.4-1,1l0,3.7C17.4,15,14.6,17,3.1,16c-0.3,0-0.6,0.1-0.8,0.3S2,16.7,2,17
	v3c0,0.6,0.4,1,1,1s1-0.4,1-1v-1.9c9.3,0.7,13.4-0.7,17.5-6.7C19.8,19.4,14.4,21,5,21c-0.6,0-1,0.4-1,1v5c0,0.5,0.3,0.9,0.8,1
	C5,28,10,29,16,29c4.4,0,8-1.6,10.5-4.5C29.2,21.3,30.3,16.6,29.4,11.4z"/>
</svg>